<!-- <svg
  xmlns="http://www.w3.org/2000/svg"
  xmlns-xlink="http://www.w3.org/1999/xlink"
  view-box="72 93 369 227"
  shape-rendering="geometricPrecision"
  text-rendering="geometricPrecision"
>
  <path
d="M200.243685,214.04615c-20.338608-.156394-40.723757.117295-61.090289-.009775-8.954572.136844-18.002228-1.094754-26.891642.537602-7.846886,1.925593-15.37729,6.871534-19.286771,14.446837-4.002563,7.467783-5.147483,16.479951-3.592999,24.85677c2.904186,16.528824,13.711107,31.190702,28.148261,38.404345c8.684632,4.769998,18.5328,6.255735,28.185493,6.939956c5.287108-4.760223,15.256283-2.36545,17.090016,4.994813c1.740649,5.796329-3.136893,12.100936-8.759099,12.149809-2.718019.430082-5.249874-.772192-7.521096-2.189507-19.752185.645123-39.876702-7.370037-53.783283-22.237181-10.657989-11.064831-17.44373-26.137241-18.597958-41.844999-1.061145-11.338519,1.917507-22.970275,8.070285-32.314779c6.515801-9.246757,16.298811-15.991221,27.124349-18.043884c4.905467-1.016557,9.913326-.948135,14.883951-.948135c27.133657.117295,54.258006.058648,81.391664.166168"
    transform="translate(0 0.000002)"
    fill="#280c2d"
    stroke="#280c2d"
    stroke-width="0.25"
  />
  <path
d="M200.243685,214.04615c-20.338608-.156394-40.723757.117295-61.090289-.009775-8.954572.136844-18.002228-1.094754-26.891642.537602-7.846886,1.925593-15.37729,6.871534-19.286771,14.446837-4.002563,7.467783-5.147483,16.479951-3.592999,24.85677c2.904186,16.528824,13.711107,31.190702,28.148261,38.404345c8.684632,4.769998,18.5328,6.255735,28.185493,6.939956c5.287108-4.760223,15.256283-2.36545,17.090016,4.994813c1.740649,5.796329-3.136893,12.100936-8.759099,12.149809-2.718019.430082-5.249874-.772192-7.521096-2.189507-19.752185.645123-39.876702-7.370037-53.783283-22.237181-10.657989-11.064831-17.44373-26.137241-18.597958-41.844999-1.061145-11.338519,1.917507-22.970275,8.070285-32.314779c6.515801-9.246757,16.298811-15.991221,27.124349-18.043884c4.905467-1.016557,9.913326-.948135,14.883951-.948135c27.133657.117295,54.258006.058648,81.391664.166168"
    transform="matrix(-.999848 0.017452-.017452-.999848 423.185266 409.185881)"
    fill="#280c2d"
    stroke="#280c2d"
    stroke-width="0.25"
  />
  <path
d="M352.85,208.46c2.04-.06,4.09-.18,6.15-.08c2.63-.21,3.86,2.58,5.52,4.12-.29,3.06,1,7-1.83,9.2-2.33,2.78-6.18,1.79-9.33,1.94-2.09-2.05-4.36-4.49-4-7.66-.52-3.09,1.66-5.38,3.49-7.52Z"
    fill="#e830a4"
    stroke="#e830a4"
    stroke-width="0.25"
  />
  <path
d="M373.39,217.04c-.68-4.75,3.18-8.64,7.62-9.47c3.35.84,7.08,2.71,7.95,6.36.79,3.7-.65,8.1-4.14,9.91-4.76,2.56-11.81-1.12-11.43-6.8Z"
    fill="#280c2d"
    stroke="#280c2d"
    stroke-width="0.25"
  />
  <path
d="M402.4,208.66c4.59-2.78,11.1.36,11.7,5.72c1.66,5.84-4.33,11.67-10.12,10.07-7.34-1.26-7.84-12.73-1.58-15.79Z"
    fill="#280c2d"
    stroke="#280c2d"
    stroke-width="0.25"
  />
  <path
d="M429.11,207.87c4.75-.77,9.98,3.06,9.7,8.09.5,5.9-6.29,10.62-11.67,8.08-7.4-2.6-5.97-15.48,1.97-16.17Z"
    fill="#280c2d"
    stroke="#280c2d"
    stroke-width="0.25"
  />
  <path
d="M321.09,241.999995c5.41-4.169987,14.68-.06,14.52,6.949977-.27,7.119975-1.8,14.149952-3.58,21.01993-3.4,12.879957-11.21,24.18992-20.69,33.359889-9.56,8.549972-21.61,14.369953-34.28,16.429945-9.88,1.769995-19.97,1.049997-29.93.769998-3.55.959997-7.21,2.629991-10.93,1.379995-5.07-1.109996-9.59-6.369979-7.96-11.719961c1.79-8.449971,13.71-11.019963,19.78-5.469982c11.07-.129999,22.48,1.159997,33.19-2.399992c20.03-6.10998,35.49-25.269916,36.14-46.369846.29-4.729984-1.15-11.029963,3.74-13.949953Z"
    transform="translate(-8.345125-5.90152)"
    fill="#e830a4"
    stroke="#e830a4"
    stroke-width="0.25"
  />
  <path
d="M321.089663,241.999977c5.409981-4.169978,14.679948-.06,14.519949,6.949962-.27,7.119963-1.799993,14.149925-3.579988,21.019889-3.399988,12.879931-11.20996,24.189871-20.689926,33.359821-9.559966,8.549955-21.609923,14.369924-34.279878,16.429913-9.879965,1.769991-19.96993,1.049994-29.929894.769996-3.549988.959995-7.209975,2.629985-10.929961,1.379992-5.069983-1.109994-9.589966-6.369966-7.959972-11.719937c1.789993-8.449954,13.709951-11.019941,19.77993-5.469971c11.069961-.129999,22.479919,1.159995,33.189881-2.399988c20.029929-6.109967,35.489875-25.269865,36.139873-46.369752.289999-4.729974-1.149996-11.02994,3.739986-13.949925Z"
    transform="matrix(-.999998-.00189 0.00189-.999998 426.380229 419.747031)"
    fill="#700965"
    stroke="#700965"
    stroke-width="0.25"
  />
  <line
    style="mix-blend-mode:luminosity"
    x1="39.058525"
    y1="-83.341866"
    x2="-37.028631"
    y2="82.345671"
    transform="matrix(.996195-.087156 0.087156 0.996195 207.777515 208.118451)"
    fill="#280c2d"
    stroke="#280c2d"
    stroke-width="14"
    stroke-linecap="round"
  />
  <text x="340" y="300"
    style="font-size:1.1rem ;
    font-weight:bolder;
    font-family: 'Major Mono Display', sans-serif
    "
  >
    AgileConnect
  </text>
</svg> -->

<svg xmlns="http://www.w3.org/2000/svg" xmlns:xlink="http://www.w3.org/1999/xlink" width="122px"
  height="75px" viewBox="0 0 121 75" version="1.1">
  <g id="surface1">
    <path
      style="fill-rule:nonzero;fill:rgb(15.686275%,4.705882%,17.647059%);fill-opacity:1;stroke-width:0.25;stroke-linecap:butt;stroke-linejoin:miter;stroke:rgb(15.686275%,4.705882%,17.647059%);stroke-opacity:1;stroke-miterlimit:4;"
      d="M 200.249419 214.043019 C 179.902957 213.889321 159.520758 214.161248 139.150471 214.031196 C 130.204223 214.173071 121.150762 212.943488 112.264075 214.57505 C 104.413772 216.502185 96.885105 221.444165 92.977822 229.022654 C 88.975239 236.482915 87.831644 245.5038 89.380262 253.874425 C 92.2869 270.402863 103.09149 285.063279 117.529378 292.287081 C 126.213552 297.051717 136.065147 298.541404 145.71423 299.227133 C 151.003357 294.462498 160.974077 296.850727 162.808594 304.216404 C 164.547811 310.009633 159.663707 316.323071 154.041032 316.370363 C 151.324994 316.795988 148.799554 315.59005 146.524277 314.1713 C 126.773438 314.82156 106.653312 306.805623 92.739573 291.944217 C 82.089844 280.877967 75.299748 265.803748 74.144241 250.091092 C 73.084033 238.752915 76.062145 227.119165 82.208968 217.77906 C 88.725077 208.53354 98.51711 201.794477 109.333613 199.73729 C 114.241542 198.720519 119.256683 198.791456 124.224174 198.791456 C 151.360731 198.909685 178.485376 198.850571 205.610021 198.956977 "
      transform="matrix(0.327913,0,0,0.330396,-23.609756,-30.726872)" />
    <path
      style="fill-rule:nonzero;fill:rgb(15.686275%,4.705882%,17.647059%);fill-opacity:1;stroke-width:0.25;stroke-linecap:butt;stroke-linejoin:miter;stroke:rgb(15.686275%,4.705882%,17.647059%);stroke-opacity:1;stroke-miterlimit:4;"
      d="M 200.242212 214.051638 C 179.907464 213.885897 159.517233 214.168527 139.158045 214.037834 C 130.196093 214.177024 121.150879 212.943094 112.258214 214.573408 C 104.420849 216.49411 96.887981 221.447253 92.97902 229.017789 C 88.976425 236.492092 87.830203 245.506167 89.387752 253.881601 C 92.280468 270.403919 103.092892 285.066097 117.526152 292.282781 C 126.211906 297.046026 136.062709 298.542336 145.713359 299.219248 C 151.002901 294.463442 160.96904 296.860444 162.806573 304.212015 C 164.55203 310.012942 159.664448 316.312977 154.051858 316.368732 C 151.327981 316.794176 148.799327 315.591218 146.52451 314.179845 C 126.771469 314.816513 106.645191 306.802801 92.738479 291.944718 C 82.089632 280.880109 75.299551 265.803328 74.144079 250.091764 C 73.079014 238.756922 76.058048 227.126103 82.213955 217.785605 C 88.725738 208.534093 98.517875 201.787553 109.335992 199.741509 C 114.238746 198.715562 119.253328 198.791265 124.221712 198.783388 C 151.360318 198.902342 178.478198 198.843563 205.617011 198.950695 "
      transform="matrix(-0.327863,0.00576608,-0.00572274,-0.330346,115.158312,104.466701)" />
    <path
      style="fill-rule:nonzero;fill:rgb(90.980392%,18.823529%,64.313725%);fill-opacity:1;stroke-width:0.25;stroke-linecap:butt;stroke-linejoin:miter;stroke:rgb(90.980392%,18.823529%,64.313725%);stroke-opacity:1;stroke-miterlimit:4;"
      d="M 352.847882 208.462604 C 354.884911 208.40349 356.945764 208.28526 358.994706 208.379844 C 361.627357 208.167031 362.854339 210.95724 364.522082 212.494219 C 364.22427 215.556354 365.522727 219.505208 362.687565 221.704271 C 360.364637 224.482656 356.505004 223.489531 353.360118 223.643229 C 351.275439 221.586042 349.000161 219.150521 349.357535 215.981979 C 348.8453 212.884375 351.025278 210.602552 352.847882 208.462604 Z M 352.847882 208.462604 "
      transform="matrix(0.327913,0,0,0.330396,-23.609756,-30.726872)" />
    <path
      style="fill-rule:nonzero;fill:rgb(15.686275%,4.705882%,17.647059%);fill-opacity:1;stroke-width:0.25;stroke-linecap:butt;stroke-linejoin:miter;stroke:rgb(15.686275%,4.705882%,17.647059%);stroke-opacity:1;stroke-miterlimit:4;"
      d="M 373.384943 217.034219 C 372.705934 212.293229 376.565567 208.40349 381.00891 207.575885 C 384.356308 208.415312 388.084904 210.283333 388.954513 213.924792 C 389.752647 217.625365 388.311241 222.035312 384.820894 223.844219 C 380.055914 226.397969 373.015657 222.721042 373.384943 217.034219 Z M 373.384943 217.034219 "
      transform="matrix(0.327913,0,0,0.330396,-23.609756,-30.726872)" />
    <path
      style="fill-rule:nonzero;fill:rgb(15.686275%,4.705882%,17.647059%);fill-opacity:1;stroke-width:0.25;stroke-linecap:butt;stroke-linejoin:miter;stroke:rgb(15.686275%,4.705882%,17.647059%);stroke-opacity:1;stroke-miterlimit:4;"
      d="M 402.403667 208.663594 C 406.98996 205.885208 413.494157 209.018281 414.101692 214.385885 C 415.757522 220.214583 409.76556 226.055104 403.976111 224.447187 C 396.638042 223.193958 396.13772 211.725729 402.403667 208.663594 Z M 402.403667 208.663594 "
      transform="matrix(0.327913,0,0,0.330396,-23.609756,-30.726872)" />
    <path
      style="fill-rule:nonzero;fill:rgb(15.686275%,4.705882%,17.647059%);fill-opacity:1;stroke-width:0.25;stroke-linecap:butt;stroke-linejoin:miter;stroke:rgb(15.686275%,4.705882%,17.647059%);stroke-opacity:1;stroke-miterlimit:4;"
      d="M 429.111377 207.871458 C 433.864443 207.102969 439.094008 210.933594 438.80811 215.958333 C 439.308432 221.857969 432.518337 226.575312 427.145823 224.045208 C 419.73628 221.444167 421.165774 208.557187 429.111377 207.871458 Z M 429.111377 207.871458 "
      transform="matrix(0.327913,0,0,0.330396,-23.609756,-30.726872)" />
    <path
      style="fill-rule:nonzero;fill:rgb(90.980392%,18.823529%,64.313725%);fill-opacity:1;stroke-width:0.25;stroke-linecap:butt;stroke-linejoin:miter;stroke:rgb(90.980392%,18.823529%,64.313725%);stroke-opacity:1;stroke-miterlimit:4;"
      d="M 321.095706 241.99428 C 326.503958 237.832614 335.771842 241.935166 335.605068 248.946155 C 335.342994 256.075374 333.806288 263.098187 332.031334 269.967301 C 328.624373 282.85428 320.82172 294.156989 311.339411 303.331572 C 301.785627 311.879541 289.73023 317.696416 277.055385 319.765426 C 267.179965 321.527041 257.090121 320.805843 247.131314 320.533916 C 243.581405 321.491572 239.924283 323.158603 236.195687 321.905374 C 231.132896 320.79402 226.606166 315.544645 228.238171 310.188864 C 230.025038 301.735478 241.949399 299.169905 248.024748 304.714853 C 259.091412 304.584801 270.503538 305.885322 281.212829 302.314801 C 301.237655 296.214176 316.700013 277.049228 317.355197 255.945322 C 317.641096 251.216155 316.19969 244.914541 321.095706 241.99428 Z M 321.095706 241.99428 "
      transform="matrix(0.327913,0,0,0.330396,-26.346233,-32.676714)" />
    <path
      style="fill-rule:nonzero;fill:rgb(43.921569%,3.529412%,39.607843%);fill-opacity:1;stroke-width:0.25;stroke-linecap:butt;stroke-linejoin:miter;stroke:rgb(43.921569%,3.529412%,39.607843%);stroke-opacity:1;stroke-miterlimit:4;"
      d="M 321.090279 241.996956 C 326.502569 237.825052 335.766348 241.945573 335.612802 248.945044 C 335.340378 256.074792 333.805035 263.10052 332.031154 269.973001 C 328.624708 282.854621 320.819582 294.160281 311.34267 303.329148 C 301.78121 311.883382 289.724868 317.699409 277.053887 319.756903 C 267.18179 321.525357 257.090576 320.811407 247.131226 320.534657 C 243.58311 321.487198 239.917232 323.161161 236.198186 321.914958 C 231.13328 320.801352 226.608504 315.536872 228.242319 310.189815 C 230.025141 301.744866 241.944656 299.168583 248.018585 304.713885 C 259.085031 304.586563 270.499619 305.877336 281.214125 302.322026 C 301.239346 296.207187 316.701262 277.048447 317.352319 255.955091 C 317.641192 251.225369 316.199768 244.914643 321.090279 241.996956 Z M 321.090279 241.996956 "
      transform="matrix(-0.327913,-0.000624449,0.000619756,-0.330396,116.205983,107.956068)" />
    <path
      style="fill-rule:nonzero;fill:rgb(15.686275%,4.705882%,17.647059%);fill-opacity:1;stroke-width:14;stroke-linecap:round;stroke-linejoin:miter;stroke:rgb(15.686275%,4.705882%,17.647059%);stroke-opacity:1;stroke-miterlimit:4;"
      d="M 39.063876 -83.336677 L -37.02661 82.342563 "
      transform="matrix(0.326666,-0.028796,0.0285796,0.329139,44.52325,38.034731)" />
  </g>
</svg>